<svg xmlns="http://www.w3.org/2000/svg" viewBox="0 0 7.63 2.96"><defs><style>.cls-1{fill:#fff;}.cls-1,.cls-2{fill-rule:evenodd;}.cls-2{fill:#ea3118;}</style></defs><title>logo</title><g id="Capa_2" data-name="Capa 2"><g id="Layer_1" data-name="Layer 1"><path class="cls-1" d="M1.26,1.91A.25.25,0,1,1,1,1.67.24.24,0,0,1,1.26,1.91Z"/><path class="cls-2" d="M.08,3C0,3,0,2.7,0,2.67A5.84,5.84,0,0,1,1.23.05c.23-.13.41,0,.46.25s.05.4.07.57c.08.46.21,1.16.76,1.25a6.76,6.76,0,0,0,1.84-.37,4.1,4.1,0,0,1,3.06.18.62.62,0,0,1,.21.15A.92.92,0,0,1,7.38,2,4.24,4.24,0,0,0,4.7,2a11.61,11.61,0,0,1-2,.56c-1.19.09-1.37-1.14-1.42-2a.31.31,0,0,0,0-.1A4.77,4.77,0,0,0,1,.88,7.13,7.13,0,0,0,.08,3ZM1.4.37h0Z"/></g></g></svg>