<svg xmlns="http://www.w3.org/2000/svg" viewBox="0 0 92.39 20.87"><defs><style>.cls-1{fill:#843030;}.cls-2{fill:#fff;}</style></defs><title>logo</title><g id="Capa_2" data-name="Capa 2"><g id="Layer_1" data-name="Layer 1"><path class="cls-1" d="M0,20.37V6A6,6,0,0,1,1.62,1.69,5.52,5.52,0,0,1,5.81,0a5.19,5.19,0,0,1,4.71,2.81A6.5,6.5,0,0,1,12.67.65,5.63,5.63,0,0,1,15.51,0a5.08,5.08,0,0,1,4.11,1.69A7.35,7.35,0,0,1,21,6.56V20.37H15.13V7.44A3.46,3.46,0,0,0,15,6.17a.62.62,0,0,0-.62-.32c-.58,0-.88.5-.88,1.49v13H7.57V7.44a3.16,3.16,0,0,0-.16-1.26.62.62,0,0,0-.62-.33c-.59,0-.88.53-.88,1.59V20.37Z"/><path class="cls-2" d="M29,14.25v3.31H28v3H24.22v-8A4.94,4.94,0,0,1,25.48,9,4.76,4.76,0,0,1,29,7.68a4.23,4.23,0,0,1,3.27,1.16,5.21,5.21,0,0,1,1.06,3.6v8.11H29.64V12.69a2.19,2.19,0,0,0-.18-1,.68.68,0,0,0-.63-.28c-.58,0-.87.43-.87,1.31v1.56Z"/><path class="cls-2" d="M41,13.51h3.55a4.72,4.72,0,0,1,1.15,3,4.09,4.09,0,0,1-1.34,3.1A4.72,4.72,0,0,1,41,20.87a5.72,5.72,0,0,1-4.35-1.94,6.76,6.76,0,0,1-1.78-4.73,6.36,6.36,0,0,1,1.82-4.66,6.08,6.08,0,0,1,4.54-1.86,6.32,6.32,0,0,1,2.06.38v3.73a3.79,3.79,0,0,0-1.61-.41,2.93,2.93,0,0,0-2.15.82,2.81,2.81,0,0,0-.83,2.12,2.86,2.86,0,0,0,.77,2.12,2.81,2.81,0,0,0,2.09.78q.84,0,.84-.48c0-.25-.19-.37-.56-.37H41Z"/><path class="cls-2" d="M51.74,14.25v3.31H50.66v3H46.93v-8A4.94,4.94,0,0,1,48.19,9a4.78,4.78,0,0,1,3.56-1.28A4.21,4.21,0,0,1,55,8.84a5.21,5.21,0,0,1,1.06,3.6v8.11H52.34V12.69a2.07,2.07,0,0,0-.18-1,.66.66,0,0,0-.62-.28c-.58,0-.88.43-.88,1.31v1.56Z"/><path class="cls-2" d="M66.83,8l-3.9,9h3.86v3.6H57.3l3.89-9H57.08V8Z"/><path class="cls-2" d="M71.84,8V20.55H68.1V8Z"/><path class="cls-2" d="M74.09,20.55V12.4a4.42,4.42,0,0,1,4.7-4.72,4.14,4.14,0,0,1,3.26,1.25,5.2,5.2,0,0,1,1.13,3.6v8H79.44v-8c0-.77-.28-1.15-.82-1.15s-.79.38-.79,1.15v8Z"/><path class="cls-2" d="M92.15,12.88v2.8H89.71a1.34,1.34,0,0,0-.7.14.58.58,0,0,0-.21.5.56.56,0,0,0,.21.52,2,2,0,0,0,.87.13h2.51v3.58H89.45a4.58,4.58,0,0,1-3.16-1,3.67,3.67,0,0,1-1.1-2.86V11.78a3.72,3.72,0,0,1,1-2.8,4,4,0,0,1,2.91-1h3.25V11.6H90q-1,0-1,.63a.52.52,0,0,0,.23.5,1.6,1.6,0,0,0,.82.15Z"/></g></g></svg>